<?xml version="1.0" encoding="UTF-8"?>
<!DOCTYPE svg PUBLIC "-//W3C//DTD SVG 1.1//EN" "http://www.w3.org/Graphics/SVG/1.1/DTD/svg11.dtd">
<!-- Creator: CorelDRAW 2019 (64-Bit) -->
<svg xmlns="http://www.w3.org/2000/svg" xml:space="preserve" width="802px" height="259px" version="1.1" shape-rendering="geometricPrecision" text-rendering="geometricPrecision" image-rendering="optimizeQuality" fill-rule="evenodd" clip-rule="evenodd"
viewBox="0 0 12.4 4.01"
 xmlns:xlink="http://www.w3.org/1999/xlink">
 <g id="Layer_x0020_1">
  <metadata id="CorelCorpID_0Corel-Layer"/>
  <g id="_2132017305392">
   <path fill="white" fill-rule="nonzero" d="M6.31 3.97l0 -0.07c0.05,0.02 0.11,0.03 0.18,0.03 0.09,0 0.13,-0.03 0.13,-0.1 0,-0.05 -0.03,-0.08 -0.1,-0.08l-0.06 0c-0.11,0 -0.17,-0.05 -0.17,-0.14 0,-0.1 0.07,-0.15 0.21,-0.15 0.06,0 0.12,0 0.17,0.02l0 0.06c-0.05,-0.02 -0.11,-0.03 -0.17,-0.03 -0.09,0 -0.14,0.03 -0.14,0.1 0,0.05 0.03,0.08 0.1,0.08l0.06 0c0.12,0 0.17,0.05 0.17,0.14 0,0.11 -0.07,0.16 -0.2,0.16 -0.07,0 -0.13,-0.01 -0.18,-0.02zm0.75 -0.25c0,0.14 0.06,0.21 0.19,0.21 0.12,0 0.19,-0.07 0.19,-0.21 0,-0.14 -0.07,-0.21 -0.19,-0.21 -0.13,0 -0.19,0.07 -0.19,0.21zm-0.08 0c0,-0.18 0.09,-0.26 0.27,-0.26 0.17,0 0.26,0.08 0.26,0.26 0,0.18 -0.09,0.27 -0.26,0.27 -0.18,0 -0.27,-0.09 -0.27,-0.27zm0.91 -0.26l0 0.47 0.28 0 0 0.05 -0.34 0 0 -0.52 0.06 0zm0.57 0.32l0 -0.32 0.07 0 0 0.32c0,0.1 0.05,0.15 0.15,0.15 0.1,0 0.15,-0.05 0.15,-0.15l0 -0.32 0.06 0 0 0.32c0,0.14 -0.07,0.21 -0.21,0.21 -0.15,0 -0.22,-0.07 -0.22,-0.21zm1.12 -0.32l0 0.05 -0.16 0 0 0.47 -0.07 0 0 -0.47 -0.17 0 0 -0.05 0.4 0zm0.37 0l0 0.52 -0.06 0 0 -0.52 0.06 0zm0.41 0.26c0,0.14 0.06,0.21 0.19,0.21 0.12,0 0.19,-0.07 0.19,-0.21 0,-0.14 -0.07,-0.21 -0.19,-0.21 -0.13,0 -0.19,0.07 -0.19,0.21zm-0.08 0c0,-0.18 0.09,-0.26 0.27,-0.26 0.17,0 0.26,0.08 0.26,0.26 0,0.18 -0.09,0.27 -0.26,0.27 -0.18,0 -0.27,-0.09 -0.27,-0.27zm0.85 0.26l0 -0.52 0.06 0 0.33 0.42 0 -0.42 0.06 0 0 0.52 -0.07 0 -0.32 -0.42 0 0.42 -0.06 0z"/>
   <path fill="white" d="M0.99 0.02l5.29 0 5.13 0c0.54,0 0.98,0.44 0.98,0.97l0 0.99c0,0.53 -0.44,0.97 -0.98,0.97l-5.13 0 -5.29 0c-0.53,0 -0.97,-0.44 -0.97,-0.97l0 -0.99c0,-0.53 0.44,-0.97 0.97,-0.97zm3.38 0.69l0.32 0 0.45 0.76 0.41 -0.76 0.31 0 -0.58 1.03 0 0.56 -0.3 0 0 -0.56 -0.61 -1.03zm-1.23 1.59l-0.3 0 0.67 -1.59 0.32 0 0.68 1.59 -0.31 0c-0.38,-0.9 -0.19,-0.45 -0.54,-1.29l-0.52 1.29zm-2.38 -1.59l0.29 0 0.17 1.14 0.42 -1.14 0.28 0 0.38 1.09 0.18 -1.09 0.29 0 -0.3 1.59 -0.28 0 -0.43 -1.25 -0.47 1.25 -0.27 0 -0.26 -1.59zm9.56 1.51l-0.27 0 0.61 -1.44 0.29 0 0.63 1.44 -0.29 0c-0.34,-0.81 -0.17,-0.4 -0.49,-1.17l-0.48 1.17zm-0.15 -1.44l0 0.23 -0.41 0 0 1.21 -0.27 0 0 -1.21 -0.41 0 0 -0.23 1.09 0zm-2.22 1.44l-0.28 0 0.62 -1.44 0.28 0 0.63 1.44 -0.29 0c-0.32,-0.78 -0.19,-0.45 -0.49,-1.17l-0.47 1.17zm-1.67 -1.44l0.57 0c0.48,0 0.72,0.22 0.72,0.68 0,0.51 -0.24,0.76 -0.72,0.76l-0.57 0 0 0.55 5.13 0c0.22,0 0.42,-0.09 0.56,-0.24 0.14,-0.14 0.23,-0.34 0.23,-0.55l0 -0.99c0,-0.21 -0.09,-0.41 -0.23,-0.56 -0.14,-0.14 -0.34,-0.23 -0.56,-0.23l-5.13 0 0 0.58zm0.57 1.21c0.3,0 0.45,-0.18 0.45,-0.53 0,-0.3 -0.15,-0.45 -0.45,-0.45l-0.3 0 0 0.98 0.3 0z"/>
  </g>
 </g>
</svg>
